<svg xmlns="http://www.w3.org/2000/svg" width="48" height="48" viewBox="0 0 48 48" fill="none">
  <g clip-path="url(#clip0_7361_55630)">
    <path fill-rule="evenodd" clip-rule="evenodd" d="M6.49219 4.58375C13.1119 4.90812 15.4031 4.75625 21.2812 1.52469L24 0.03125L26.7159 1.52469C32.5594 4.7375 34.9059 4.90719 41.5078 4.58375L48 4.26781L47.3972 10.7413C45.8719 27.0791 41.9597 38.6338 26.6372 46.7366C23.5387 48.3734 24.4603 48.3734 21.3647 46.7366C6.03844 38.6347 2.12625 27.08 0.60375 10.7413L0 4.26781L6.49219 4.58375Z" fill="#E7E7E7"/>
    <path fill-rule="evenodd" clip-rule="evenodd" d="M7.3106 10.267C14.0287 10.5463 17.2997 10.1104 23.6944 6.63414C23.8912 6.5282 24.1087 6.5282 24.3028 6.63414C30.6037 10.057 33.8297 10.5482 40.6865 10.267C40.9734 10.2566 41.2237 10.357 41.4197 10.567C41.6165 10.7741 41.7037 11.032 41.6747 11.316C40.2956 24.9838 37.2309 34.5688 24.4537 41.5101C24.1612 41.6666 23.835 41.6666 23.5425 41.5101C10.7653 34.5698 7.70435 24.9838 6.32529 11.317C6.29623 11.0329 6.38342 10.7751 6.57748 10.5679C6.77435 10.357 7.02654 10.2566 7.3106 10.267Z" fill="#00ABE9"/>
    <path d="M24.7736 33.5934C24.7736 34.0209 24.4277 34.3669 24.0002 34.3669C23.5727 34.3669 23.2239 34.0219 23.2239 33.5934V31.3481C23.1152 31.3237 23.0036 31.3003 22.8949 31.2684C21.6433 30.9309 20.4424 30.15 19.5677 28.8178C19.3445 28.4747 19.1402 28.0922 18.9649 27.6675C18.7999 27.2737 18.9864 26.8228 19.382 26.6578C19.7758 26.4956 20.2267 26.6822 20.3917 27.075C20.5277 27.4041 20.687 27.7022 20.8652 27.9703C21.5083 28.9566 22.3849 29.5303 23.2942 29.775C24.2083 30.0225 25.1514 29.9447 25.9249 29.6213C26.1133 29.5416 26.2942 29.4459 26.462 29.3372C26.6214 29.2331 26.762 29.1169 26.8849 28.9913C27.2383 28.6275 27.467 28.17 27.5336 27.6947C27.5945 27.2325 27.5017 26.7459 27.2149 26.3072C27.122 26.1637 27.0077 26.0259 26.8774 25.8975C26.3861 25.4222 25.442 25.1981 24.4427 24.9619C23.058 24.6347 21.5833 24.2869 20.4986 23.1731C20.1208 22.785 19.8452 22.32 19.6745 21.8175C19.4458 21.15 19.4064 20.4169 19.5602 19.7184C19.7139 19.0116 20.0655 18.3366 20.6261 17.7919C21.033 17.3963 21.5458 17.0719 22.1674 16.8591C22.3192 16.8084 22.4786 16.7634 22.6427 16.7231C22.8339 16.6753 23.028 16.6378 23.2249 16.6087V14.4141C23.2249 13.9866 23.5727 13.6406 24.0011 13.6406C24.4286 13.6406 24.7745 13.9866 24.7745 14.4141V16.575C25.2527 16.6228 25.7261 16.7269 26.1695 16.8909C27.3414 17.3241 28.3249 18.1584 28.7683 19.4662C28.8058 19.5778 28.8405 19.6978 28.8695 19.8197C28.9736 20.2341 28.7205 20.6541 28.3061 20.7553C27.8917 20.8566 27.4717 20.6034 27.3705 20.1891C27.3517 20.115 27.3302 20.04 27.3039 19.9631C27.0274 19.1503 26.3955 18.6216 25.638 18.3422C24.8167 18.0394 23.8577 18.0122 23.012 18.2222C22.8949 18.2512 22.7805 18.2859 22.6642 18.3234C22.2686 18.4594 21.9489 18.6581 21.7024 18.8972C21.3733 19.2187 21.1633 19.6228 21.0724 20.0456C20.9767 20.4731 21.0002 20.9203 21.1361 21.3216C21.2345 21.6141 21.3911 21.8794 21.6039 22.0978C22.3717 22.8844 23.6214 23.1797 24.7933 23.4553C26.0074 23.7422 27.153 24.0131 27.9527 24.7922C28.173 25.005 28.3567 25.2309 28.5077 25.4587C29.0102 26.2237 29.1724 27.0797 29.0608 27.8981C28.952 28.7034 28.5742 29.4656 27.9902 30.0666C27.7858 30.2794 27.557 30.4678 27.3095 30.63C27.0649 30.7894 26.7995 30.93 26.5174 31.0472C25.9802 31.2703 25.3877 31.4109 24.7736 31.4541V33.5934Z" fill="#FAD207"/>
    <path fill-rule="evenodd" clip-rule="evenodd" d="M25.3556 47.4338C23.7375 48.3244 23.9288 48.09 21.3638 46.7344C6.03844 38.6325 2.12625 27.0778 0.60375 10.7391L0 4.26562L2.72156 4.39875L3.31125 10.7391C4.83656 27.0769 8.74875 38.6316 24.0713 46.7344C24.6056 47.0166 25.0181 47.25 25.3556 47.4338Z" fill="#D0D0D0"/>
    <path fill-rule="evenodd" clip-rule="evenodd" d="M11.4722 4.67656C14.7994 4.54344 17.159 3.79156 21.2812 1.52469L24 0.03125L25.3556 0.775625L23.9925 1.52469C18.839 4.35687 16.4419 4.82281 11.4722 4.67656Z" fill="#D0D0D0"/>
  </g>
  <defs>
    <clipPath id="clip0_7361_55630">
      <rect width="48" height="48" fill="white"/>
    </clipPath>
  </defs>
</svg>