<svg xmlns="http://www.w3.org/2000/svg" width="48" height="48" viewBox="0 0 48 48" fill="none">
  <path d="M46.4652 37.6059H1.53478C0.687094 37.6059 0 36.9187 0 36.0711V11.9254C0 11.0778 0.687094 10.3906 1.53478 10.3906H46.4652C47.3128 10.3906 48 11.0777 48 11.9254V36.0711C48 36.9187 47.3129 37.6059 46.4652 37.6059Z" fill="#5EA570"/>
  <path d="M46.4649 10.3906H44.4346C45.2823 10.3906 45.9694 11.0777 45.9694 11.9254V36.0711C45.9694 36.9187 45.2823 37.6059 44.4346 37.6059H46.4649C47.3125 37.6059 47.9997 36.9187 47.9997 36.0711V11.9254C47.9997 11.0778 47.3126 10.3906 46.4649 10.3906Z" fill="#528E61"/>
  <path d="M42.6484 29.7871C42.7788 29.7764 42.8786 29.6677 42.8786 29.5369V18.4629C42.8786 18.3323 42.7785 18.2234 42.6484 18.2127C41.2969 18.1018 40.2196 17.023 40.1109 15.6709C40.1006 15.5432 39.9942 15.4453 39.8661 15.4453H8.13921C8.00861 15.4453 7.89968 15.5454 7.88899 15.6756C7.77818 17.0255 6.70174 18.1019 5.35183 18.2127C5.22143 18.2234 5.12158 18.3322 5.12158 18.4629V29.5369C5.12158 29.6675 5.22171 29.7764 5.35183 29.7871C6.70174 29.8979 7.77818 30.9743 7.88899 32.3242C7.89968 32.4547 8.00843 32.5545 8.13921 32.5545H39.861C39.9916 32.5545 40.1006 32.4544 40.1112 32.3242C40.2221 30.9743 41.2985 29.8979 42.6484 29.7871Z" fill="#8BC852"/>
  <path d="M42.6485 18.2126C41.297 18.1017 40.2197 17.0229 40.1109 15.6709C40.1006 15.5432 39.9943 15.4453 39.8662 15.4453H37.4206C37.5487 15.4453 37.6551 15.5432 37.6654 15.6709C37.7741 17.023 38.8514 18.1017 40.2029 18.2126C40.333 18.2233 40.4332 18.3322 40.4332 18.4628V29.5368C40.4332 29.6676 40.3333 29.7763 40.2029 29.787C38.853 29.8978 37.7766 30.9742 37.6657 32.3242C37.6551 32.4543 37.5461 32.5544 37.4155 32.5544H39.8611C39.9917 32.5544 40.1006 32.4543 40.1113 32.3242C40.2221 30.9742 41.2986 29.8978 42.6485 29.787C42.7789 29.7763 42.8787 29.6676 42.8787 29.5368V18.4628C42.8787 18.3322 42.7787 18.2233 42.6485 18.2126Z" fill="#7DBE3B"/>
  <path d="M23.9997 34.8686C30.0041 34.8686 34.8716 30.0012 34.8716 23.9968C34.8716 17.9925 30.0041 13.125 23.9997 13.125C17.9954 13.125 13.1279 17.9925 13.1279 23.9968C13.1279 30.0012 17.9954 34.8686 23.9997 34.8686Z" fill="#CBE7AF"/>
  <path d="M23.9998 13.125C23.5995 13.125 23.2045 13.1473 22.8154 13.1895C28.2625 13.7798 32.5028 18.3928 32.5028 23.9968C32.5028 29.6008 28.2625 34.2139 22.8154 34.8041C23.2045 34.8463 23.5996 34.8686 23.9998 34.8686C30.0041 34.8686 34.8716 30.0011 34.8716 23.9968C34.8716 17.9925 30.0041 13.125 23.9998 13.125Z" fill="#AAD880"/>
  <path d="M25.3945 23.2518C25.1511 23.1658 24.9018 23.0754 24.6536 22.9809V19.1214C25.3078 19.2571 25.6989 19.5912 25.7307 19.6193C26.0249 19.8862 26.4799 19.8664 26.7498 19.5739C27.021 19.2799 27.0026 18.8216 26.7085 18.5503C26.6637 18.5091 25.9007 17.8225 24.6535 17.6529V16.8337C24.6535 16.4337 24.3292 16.1094 23.9292 16.1094C23.5291 16.1094 23.2048 16.4337 23.2048 16.8337V17.7086C23.073 17.736 22.9385 17.7697 22.801 17.8111C21.695 18.1442 20.8685 19.0914 20.6441 20.283C20.4397 21.3673 20.7856 22.4119 21.5469 23.0089C21.9638 23.3359 22.4852 23.6353 23.2048 23.9531V28.7989C22.5453 28.76 22.1112 28.6151 21.3798 28.1365C21.045 27.9176 20.5961 28.0112 20.3771 28.346C20.1581 28.6808 20.2519 29.1298 20.5866 29.3488C21.6056 30.0153 22.2959 30.2037 23.2048 30.248V31.164C23.2048 31.5642 23.5291 31.8883 23.9292 31.8883C24.3292 31.8883 24.6535 31.5641 24.6535 31.164V30.1928C26.4264 29.8695 27.4617 28.4191 27.6894 27.0646C27.9788 25.3435 27.078 23.8468 25.3945 23.2518ZM22.441 21.869C22.1069 21.6071 21.9638 21.1021 22.0677 20.5513C22.1641 20.0391 22.5138 19.4183 23.2048 19.203V22.3476C22.9152 22.1958 22.6544 22.0363 22.441 21.869ZM26.2607 26.8245C26.1316 27.5923 25.585 28.41 24.6535 28.7008V24.5252C24.7379 24.5558 24.8232 24.5864 24.9117 24.6177C26.4182 25.1502 26.3251 26.4415 26.2607 26.8245Z" fill="#5EA570"/>
</svg>