<svg xmlns="http://www.w3.org/2000/svg" width="48" height="48" viewBox="0 0 48 48" fill="none">
  <path fill-rule="evenodd" clip-rule="evenodd" d="M1.55078 12.8549V14.3324H46.4488V12.8549L23.9998 1.03516L1.55078 12.8549Z" fill="#7986BF"/>
  <path fill-rule="evenodd" clip-rule="evenodd" d="M24 1.03516L41.8938 14.3324H46.449V12.8549L24 1.03516Z" fill="#5D689E"/>
  <path fill-rule="evenodd" clip-rule="evenodd" d="M31.7105 18.8447C31.7105 19.1479 31.5816 19.4068 31.3768 19.5828C30.9259 19.9702 30.6909 20.4821 30.6909 21.0767V33.7125C30.6909 34.3071 30.9259 34.8188 31.3768 35.2064C31.5817 35.3824 31.7105 35.6411 31.7105 35.9445V37.5626H26.5596V35.9445C26.5596 35.641 26.6884 35.3824 26.8932 35.2064C27.3442 34.8189 27.5792 34.3072 27.5792 33.7125V21.0767C27.5792 20.4821 27.3441 19.9703 26.8932 19.5828C26.6885 19.4069 26.5596 19.1482 26.5596 18.8447V17.2266H31.7105V18.8447Z" fill="#7986BF"/>
  <path fill-rule="evenodd" clip-rule="evenodd" d="M30.3745 37.5626H26.5596V35.9445C26.5596 35.641 26.6884 35.3824 26.8932 35.2064C27.3442 34.8189 27.5792 34.3072 27.5792 33.7125V21.0767C27.5792 20.4821 27.3441 19.9703 26.8932 19.5828C26.6885 19.4069 26.5596 19.1482 26.5596 18.8447V17.2266H30.3745V18.8447C30.3745 19.1479 30.2456 19.4068 30.0409 19.5828C29.5899 19.9702 29.3549 20.4821 29.3549 21.0767V33.7125C29.3549 34.3071 29.5899 34.8188 30.0409 35.2064C30.2457 35.3824 30.3745 35.6411 30.3745 35.9445V37.5626Z" fill="#909CD1"/>
  <path fill-rule="evenodd" clip-rule="evenodd" d="M31.7932 36.9727H26.4763C25.9072 36.9727 25.4414 37.4384 25.4414 38.0076V39.0425H32.8281V38.0076C32.8281 37.4383 32.3623 36.9727 31.7932 36.9727H31.7932Z" fill="#3D4A75"/>
  <path fill-rule="evenodd" clip-rule="evenodd" d="M30.4573 36.9727H26.4763C25.9072 36.9727 25.4414 37.4384 25.4414 38.0076V39.0425H31.4921V38.0076C31.4921 37.4383 31.0264 36.9727 30.4572 36.9727H30.4573Z" fill="#5D689E"/>
  <path fill-rule="evenodd" clip-rule="evenodd" d="M31.7932 17.8198H26.4763C25.9072 17.8198 25.4414 17.3542 25.4414 16.7849V15.75H32.8281V16.7849C32.8281 17.3542 32.3623 17.8198 31.7932 17.8198H31.7932Z" fill="#3D4A75"/>
  <path fill-rule="evenodd" clip-rule="evenodd" d="M30.4573 17.8198H26.4763C25.9072 17.8198 25.4414 17.3542 25.4414 16.7849V15.75H31.4921V16.7849C31.4921 17.3542 31.0264 17.8198 30.4572 17.8198H30.4573Z" fill="#5D689E"/>
  <path fill-rule="evenodd" clip-rule="evenodd" d="M41.98 18.8447C41.98 19.1479 41.8511 19.4068 41.6464 19.5828C41.1954 19.9702 40.9604 20.4821 40.9604 21.0767V33.7125C40.9604 34.3071 41.1954 34.8188 41.6464 35.2064C41.8512 35.3824 41.98 35.6411 41.98 35.9445V37.5626H36.8291V35.9445C36.8291 35.641 36.9579 35.3824 37.1628 35.2064C37.6137 34.8189 37.8487 34.3072 37.8487 33.7125V21.0767C37.8487 20.4821 37.6136 19.9703 37.1628 19.5828C36.958 19.4069 36.8291 19.1482 36.8291 18.8447V17.2266H41.98V18.8447Z" fill="#7986BF"/>
  <path fill-rule="evenodd" clip-rule="evenodd" d="M40.6441 37.5626H36.8291V35.9445C36.8291 35.641 36.9579 35.3824 37.1628 35.2064C37.6137 34.8189 37.8487 34.3072 37.8487 33.7125V21.0767C37.8487 20.4821 37.6136 19.9703 37.1628 19.5828C36.958 19.4069 36.8291 19.1482 36.8291 18.8447V17.2266H40.6441V18.8447C40.6441 19.1479 40.5152 19.4068 40.3104 19.5828C39.8595 19.9702 39.6244 20.4821 39.6244 21.0767V33.7125C39.6244 34.3071 39.8595 34.8188 40.3104 35.2064C40.5153 35.3824 40.6441 35.6411 40.6441 35.9445V37.5626Z" fill="#909CD1"/>
  <path fill-rule="evenodd" clip-rule="evenodd" d="M42.0638 36.9727H36.7468C36.1777 36.9727 35.7119 37.4384 35.7119 38.0076V39.0425H43.0987V38.0076C43.0987 37.4383 42.6329 36.9727 42.0638 36.9727Z" fill="#3D4A75"/>
  <path fill-rule="evenodd" clip-rule="evenodd" d="M40.7278 36.9727H36.7468C36.1777 36.9727 35.7119 37.4384 35.7119 38.0076V39.0425H41.7626V38.0076C41.7626 37.4383 41.2969 36.9727 40.7277 36.9727H40.7278Z" fill="#5D689E"/>
  <path fill-rule="evenodd" clip-rule="evenodd" d="M42.0638 17.8198H36.7468C36.1777 17.8198 35.7119 17.3542 35.7119 16.7849V15.75H43.0987V16.7849C43.0987 17.3542 42.6329 17.8198 42.0638 17.8198Z" fill="#3D4A75"/>
  <path fill-rule="evenodd" clip-rule="evenodd" d="M40.7278 17.8198H36.7468C36.1777 17.8198 35.7119 17.3542 35.7119 16.7849V15.75H41.7626V16.7849C41.7626 17.3542 41.2969 17.8198 40.7277 17.8198H40.7278Z" fill="#5D689E"/>
  <path fill-rule="evenodd" clip-rule="evenodd" d="M21.44 18.8447C21.44 19.1479 21.3111 19.4068 21.1063 19.5828C20.6554 19.9702 20.4203 20.4821 20.4203 21.0767V33.7125C20.4203 34.3071 20.6554 34.8188 21.1063 35.2064C21.3112 35.3824 21.44 35.6411 21.44 35.9445V37.5626H16.2891V35.9445C16.2891 35.641 16.4179 35.3824 16.6227 35.2064C17.0737 34.8189 17.3087 34.3072 17.3087 33.7125V21.0767C17.3087 20.4821 17.0736 19.9703 16.6227 19.5828C16.418 19.4069 16.2891 19.1482 16.2891 18.8447V17.2266H21.44V18.8447Z" fill="#7986BF"/>
  <path fill-rule="evenodd" clip-rule="evenodd" d="M20.104 37.5626H16.2891V35.9445C16.2891 35.641 16.4179 35.3824 16.6227 35.2064C17.0737 34.8189 17.3087 34.3072 17.3087 33.7125V21.0767C17.3087 20.4821 17.0736 19.9703 16.6227 19.5828C16.418 19.4069 16.2891 19.1482 16.2891 18.8447V17.2266H20.104V18.8447C20.104 19.1479 19.9751 19.4068 19.7704 19.5828C19.3194 19.9702 19.0844 20.4821 19.0844 21.0767V33.7125C19.0844 34.3071 19.3194 34.8188 19.7704 35.2064C19.9752 35.3824 20.104 35.6411 20.104 35.9445V37.5626Z" fill="#909CD1"/>
  <path fill-rule="evenodd" clip-rule="evenodd" d="M21.5237 36.9727H16.2068C15.6376 36.9727 15.1719 37.4384 15.1719 38.0076V39.0425H22.5585V38.0076C22.5585 37.4383 22.0929 36.9727 21.5237 36.9727Z" fill="#3D4A75"/>
  <path fill-rule="evenodd" clip-rule="evenodd" d="M20.1878 36.9727H16.2068C15.6376 36.9727 15.1719 37.4384 15.1719 38.0076V39.0425H21.2226V38.0076C21.2226 37.4383 20.7569 36.9727 20.1878 36.9727Z" fill="#5D689E"/>
  <path fill-rule="evenodd" clip-rule="evenodd" d="M21.5237 17.8198H16.2068C15.6376 17.8198 15.1719 17.3542 15.1719 16.7849V15.75H22.5585V16.7849C22.5585 17.3542 22.0929 17.8198 21.5237 17.8198Z" fill="#3D4A75"/>
  <path fill-rule="evenodd" clip-rule="evenodd" d="M20.1878 17.8198H16.2068C15.6376 17.8198 15.1719 17.3542 15.1719 16.7849V15.75H21.2226V16.7849C21.2226 17.3542 20.7569 17.8198 20.1878 17.8198Z" fill="#5D689E"/>
  <path fill-rule="evenodd" clip-rule="evenodd" d="M11.1704 18.8447C11.1704 19.1479 11.0415 19.4068 10.8368 19.5828C10.3858 19.9702 10.1508 20.4821 10.1508 21.0767V33.7125C10.1508 34.3071 10.3858 34.8188 10.8368 35.2064C11.0416 35.3824 11.1704 35.6411 11.1704 35.9445V37.5626H6.01953V35.9445C6.01953 35.641 6.14834 35.3824 6.35319 35.2064C6.80412 34.8189 7.03916 34.3072 7.03916 33.7125V21.0767C7.03916 20.4821 6.80403 19.9703 6.35319 19.5828C6.14844 19.4069 6.01953 19.1482 6.01953 18.8447V17.2266H11.1704V18.8447Z" fill="#7986BF"/>
  <path fill-rule="evenodd" clip-rule="evenodd" d="M9.8345 37.5626H6.01953V35.9445C6.01953 35.641 6.14834 35.3824 6.35319 35.2064C6.80412 34.8189 7.03916 34.3072 7.03916 33.7125V21.0767C7.03916 20.4821 6.80403 19.9703 6.35319 19.5828C6.14844 19.4069 6.01953 19.1482 6.01953 18.8447V17.2266H9.8345V18.8447C9.8345 19.1479 9.70559 19.4068 9.50084 19.5828C9.04991 19.9702 8.81488 20.4821 8.81488 21.0767V33.7125C8.81488 34.3071 9.04991 34.8188 9.50084 35.2064C9.70569 35.3824 9.8345 35.6411 9.8345 35.9445V37.5626Z" fill="#909CD1"/>
  <path fill-rule="evenodd" clip-rule="evenodd" d="M11.2532 36.9727H5.93627C5.36712 36.9727 4.90137 37.4384 4.90137 38.0076V39.0425H12.2881V38.0076C12.2881 37.4383 11.8224 36.9727 11.2532 36.9727Z" fill="#3D4A75"/>
  <path fill-rule="evenodd" clip-rule="evenodd" d="M9.91727 36.9727H5.93627C5.36712 36.9727 4.90137 37.4384 4.90137 38.0076V39.0425H10.9522V38.0076C10.9522 37.4383 10.4864 36.9727 9.91727 36.9727Z" fill="#5D689E"/>
  <path fill-rule="evenodd" clip-rule="evenodd" d="M11.2532 17.8198H5.93627C5.36712 17.8198 4.90137 17.3542 4.90137 16.7849V15.75H12.2881V16.7849C12.2881 17.3542 11.8224 17.8198 11.2532 17.8198Z" fill="#3D4A75"/>
  <path fill-rule="evenodd" clip-rule="evenodd" d="M9.91727 17.8198H5.93627C5.36712 17.8198 4.90137 17.3542 4.90137 16.7849V15.75H10.9522V16.7849C10.9522 17.3542 10.4864 17.8198 9.91727 17.8198Z" fill="#5D689E"/>
  <path d="M1.55091 39.043H46.449C46.7359 39.043 46.9688 39.2758 46.9688 39.5627V41.421C46.9688 41.7079 46.7359 41.9408 46.449 41.9408H1.551C1.26413 41.9408 1.03125 41.7079 1.03125 41.421V39.5627C1.03125 39.2758 1.26412 39.0431 1.55091 39.0431V39.043Z" fill="#3D4A75"/>
  <path d="M1.551 12.8555H46.449C46.7359 12.8555 46.9688 13.0883 46.9688 13.3752V15.2335C46.9688 15.5204 46.7359 15.7533 46.449 15.7533H1.55091C1.26403 15.7533 1.03125 15.5204 1.03125 15.2336V13.3753C1.03125 13.0884 1.26413 12.8555 1.551 12.8555Z" fill="#3D4A75"/>
  <path d="M24.1467 10.6098C25.4593 10.5282 26.4573 9.39802 26.3758 8.08536C26.2943 6.77271 25.164 5.7747 23.8514 5.85625C22.5387 5.9378 21.5407 7.06802 21.6223 8.38067C21.7038 9.69333 22.834 10.6913 24.1467 10.6098Z" fill="#F3F3FF"/>
  <path d="M8.625 31.707H39.375V46.9637H8.625V31.707Z" fill="#2DD62D"/>
  <path fill-rule="evenodd" clip-rule="evenodd" d="M35.897 33.3047C35.7397 34.447 36.4889 35.2118 37.2593 35.2118V37.7499H10.7412V35.2118C11.5116 35.2118 12.2607 34.447 12.1036 33.3047H35.897Z" fill="#29B933"/>
  <path fill-rule="evenodd" clip-rule="evenodd" d="M12.6484 33.8242H35.3522C35.3522 34.8775 36.2061 35.7314 37.2593 35.7314V42.9419C36.2061 42.9419 35.3522 43.7957 35.3522 44.849H12.6484C12.6484 43.7957 11.7945 42.9419 10.7412 42.9419V35.7314C11.7945 35.7314 12.6484 34.8775 12.6484 33.8242Z" fill="#96FF96"/>
  <path d="M27.8774 43.2202C30.0227 41.075 30.0227 37.5969 27.8774 35.4517C25.7322 33.3064 22.2541 33.3064 20.1089 35.4517C17.9637 37.5969 17.9637 41.075 20.1089 43.2202C22.2541 45.3654 25.7322 45.3654 27.8774 43.2202Z" fill="#29B933"/>
  <path fill-rule="evenodd" clip-rule="evenodd" d="M24.0001 33.8438C26.9218 33.8438 29.3103 36.1244 29.4837 39.0025C29.3103 41.8807 26.9218 44.1612 24.0001 44.1612C21.0785 44.1612 18.6899 41.8806 18.5166 39.0025C18.6899 36.1244 21.0785 33.8438 24.0001 33.8438Z" fill="#2DD62D"/>
  <path fill-rule="evenodd" clip-rule="evenodd" d="M24.0002 43.6617C23.6899 43.6617 23.4378 43.4096 23.4378 43.0988V42.627C22.3909 42.4436 21.6282 41.8397 21.4316 40.9995C21.3616 40.6969 21.5495 40.3942 21.8517 40.3237C22.1544 40.2532 22.4571 40.4411 22.5276 40.7438C22.615 41.1184 22.9929 41.3578 23.4378 41.4747V39.8122C23.007 39.6982 22.5696 39.5473 22.2266 39.2811C21.7993 38.9499 21.545 38.5009 21.5093 38.0175C21.4745 37.545 21.6489 37.0833 21.9994 36.7178C22.3619 36.34 22.8862 36.124 23.4377 36.0381V35.578C23.4377 35.2672 23.6898 35.0156 24.0001 35.0156C24.3104 35.0156 24.5625 35.2672 24.5625 35.578V36.0341C24.7046 36.0549 24.8422 36.0836 24.9723 36.1197C25.8238 36.356 26.4011 36.8882 26.5588 37.5789C26.6271 37.882 26.4378 38.1833 26.1351 38.2525C25.832 38.3216 25.5302 38.1315 25.4619 37.8288C25.3725 37.438 24.8797 37.2618 24.6714 37.204C24.6354 37.1941 24.5991 37.185 24.5625 37.1768V38.9305C24.5964 38.9395 24.63 38.9487 24.6633 38.9582C25.5302 39.2044 26.1125 39.5879 26.3935 40.0975C26.5982 40.4684 26.6384 40.8994 26.5083 41.3448C26.2755 42.1401 25.4345 42.5537 24.5626 42.6582V43.0989C24.5626 43.4097 24.3105 43.6618 24.0002 43.6618V43.6617ZM23.4378 38.6409V37.1812C23.1748 37.2442 22.9511 37.3519 22.8116 37.4971C22.6842 37.6295 22.6201 37.7849 22.6314 37.9353C22.6436 38.0988 22.7421 38.2569 22.9164 38.3925C23.0476 38.4941 23.2304 38.5734 23.4378 38.6408V38.6409ZM24.5626 40.1043V41.5217C25.0104 41.4442 25.3614 41.2561 25.4282 41.0288C25.4883 40.8219 25.4458 40.7086 25.4083 40.6413C25.3424 40.5208 25.1449 40.3014 24.5626 40.1043Z" fill="#009914"/>
  <path fill-rule="evenodd" clip-rule="evenodd" d="M14.0371 39.8984C13.7264 39.8984 13.4746 39.6466 13.4746 39.3359C13.4746 39.0253 13.7264 38.7734 14.0371 38.7734H15.1923C15.503 38.7734 15.7548 39.0253 15.7548 39.3359C15.7548 39.6466 15.503 39.8984 15.1923 39.8984H14.0371ZM32.8069 39.8984C32.4962 39.8984 32.2444 39.6466 32.2444 39.3359C32.2444 39.0253 32.4962 38.7734 32.8069 38.7734H33.9621C34.2728 38.7734 34.5246 39.0253 34.5246 39.3359C34.5246 39.6466 34.2728 39.8984 33.9621 39.8984H32.8069Z" fill="#009914"/>
  <path d="M38.6631 31.707H39.3755V46.9637H38.6631V31.707Z" fill="#29B933"/>
</svg>