<svg width="40" height="40" viewBox="0 0 40 40" fill="none" xmlns="http://www.w3.org/2000/svg">
<g clip-path="url(#clip0_6093_11461)">
<path d="M37.2539 2.74617C40.9155 6.40686 40.9155 12.3427 37.2539 16.0043L29.529 23.73C28.489 24.77 27.2661 25.5138 25.9633 25.963C23.9818 26.646 21.8174 26.646 19.8358 25.963C18.533 25.5138 17.3102 24.77 16.2702 23.73C15.231 22.69 14.4864 21.4671 14.0372 20.1643L14.2016 20C14.0372 20.1643 17.099 17.043 17.099 17.043L20.0003 20C21.5986 21.5991 24.1999 21.5991 25.799 20L25.9634 19.8356L33.5248 12.2742C35.1231 10.6759 35.1231 8.07459 33.5248 6.47546C31.9257 4.87718 29.3243 4.87718 27.7261 6.47546L20.1647 14.0368L17.1009 15.2828L14.0371 14.0368C14.4863 12.7348 15.2301 11.5111 16.2701 10.4711L23.9958 2.74617C27.6574 -0.915389 33.5932 -0.915389 37.2539 2.74617Z" fill="#A3E1FF"/>
<path d="M20.1646 14.0357C21.4665 14.4849 22.6894 15.2295 23.7294 16.2695C24.7694 17.3086 25.514 18.5324 25.9632 19.8343L25.7988 19.9987C24.1997 21.5978 21.5984 21.5978 20.0001 19.9987C18.401 18.4004 15.7996 18.4004 14.2014 19.9987L14.037 20.1631L6.47559 27.7245C4.87646 29.3236 4.87646 31.9249 6.47559 33.5232C8.07387 35.1224 10.6752 35.1224 12.2743 33.5232L19.8357 25.9618C21.8173 26.6449 23.9817 26.6449 25.9632 25.9618C25.514 27.2647 24.7694 28.4875 23.7294 29.5275L16.0045 37.2533C12.3429 40.914 6.40708 40.914 2.74552 37.2533C-0.915174 33.5917 -0.915174 27.6559 2.74552 23.9943L10.4713 16.2694C11.5113 15.2294 12.7342 14.4848 14.037 14.0356C16.0186 13.3527 18.183 13.3527 20.1646 14.0357Z" fill="#4AAEE2"/>
</g>
<defs>
<clipPath id="clip0_6093_11461">
<rect width="40" height="40" fill="white"/>
</clipPath>
</defs>
</svg>
