<svg xmlns="http://www.w3.org/2000/svg" width="72" height="72" viewBox="0 0 72 72" fill="none">
  <path d="M72 36C72 55.8823 55.8823 72 36 72C16.1177 72 0 55.8823 0 36C0 16.1177 16.1177 0 36 0C55.8823 0 72 16.1177 72 36Z" fill="#28A745"/>
  <path d="M48.891 23.046L32.8861 39.0509L24.5894 30.7611C22.7885 28.9602 19.8664 28.9602 18.0655 30.7611C16.2646 32.562 16.2646 35.4841 18.0655 37.285L29.7048 48.9243C31.4566 50.6761 34.3016 50.6761 36.0535 48.9243L55.4079 29.5699C57.2088 27.769 57.2088 24.8469 55.4079 23.046C53.607 21.2451 50.6919 21.2451 48.891 23.046Z" fill="white"/>
</svg>