<svg xmlns="http://www.w3.org/2000/svg" width="48" height="48" viewBox="0 0 48 48" fill="none">
  <path d="M43.9998 36V38.4C43.9998 38.8416 43.6414 39.2 43.1998 39.2H7.1998C3.1998 39.2 0.799805 36.8 0.799805 32.8V28L43.9998 36Z" fill="#2E72AA"/>
  <path d="M7.2002 32V35.2C7.2002 35.6416 7.5586 36 8.0002 36H46.4002C46.8418 36 47.2002 35.6416 47.2002 35.2V32H7.2002Z" fill="#D5DBDB"/>
  <path d="M7.2002 12H46.4002C46.8418 12 47.2002 12.3584 47.2002 12.8V32C47.2002 32.4416 46.8418 32.8 46.4002 32.8H7.2002V12Z" fill="#E4EAEA"/>
  <path d="M42.4001 22.3984H34.4001C33.9583 22.3984 33.6001 22.7566 33.6001 23.1984V26.3984C33.6001 26.8403 33.9583 27.1984 34.4001 27.1984H42.4001C42.8419 27.1984 43.2001 26.8403 43.2001 26.3984V23.1984C43.2001 22.7566 42.8419 22.3984 42.4001 22.3984Z" fill="white"/>
  <path d="M0.799805 32.7969C0.799805 31.0297 2.2326 29.5969 3.9998 29.5969C5.767 29.5969 7.1998 31.0297 7.1998 32.7969L7.9998 31.9969V12.7969L7.1998 11.9969C7.1998 10.2297 5.767 8.79688 3.9998 8.79688C2.2326 8.79688 0.799805 10.2297 0.799805 11.9969V32.7969Z" fill="#3C91E5"/>
  <path d="M7.2002 12H12.8002V32.8H7.2002V12Z" fill="#2E72AA"/>
  <path d="M43.2 18.3969H16.8C16.3576 18.3969 16 18.0393 16 17.5969C16 17.1545 16.3576 16.7969 16.8 16.7969H43.2C43.6424 16.7969 44 17.1545 44 17.5969C44 18.0393 43.6424 18.3969 43.2 18.3969Z" fill="#BDC6C6"/>
  <path d="M29.6 23.2016H16.8C16.3576 23.2016 16 22.844 16 22.4016C16 21.9592 16.3576 21.6016 16.8 21.6016H29.6C30.0424 21.6016 30.4 21.9592 30.4 22.4016C30.4 22.844 30.0424 23.2016 29.6 23.2016Z" fill="#BDC6C6"/>
  <path d="M29.6 27.9984H16.8C16.3576 27.9984 16 27.6408 16 27.1984C16 26.756 16.3576 26.3984 16.8 26.3984H29.6C30.0424 26.3984 30.4 26.756 30.4 27.1984C30.4 27.6408 30.0424 27.9984 29.6 27.9984Z" fill="#BDC6C6"/>
</svg>