<svg xmlns="http://www.w3.org/2000/svg" width="72" height="72" viewBox="0 0 72 72" fill="none">
  <path d="M72 36C72 55.8823 55.8823 72 36 72C16.1177 72 0 55.8823 0 36C0 16.1177 16.1177 0 36 0C55.8823 0 72 16.1177 72 36Z" fill="#CE3B3B"/>
  <path d="M24.1821 40.5465C22.1737 42.555 22.1737 45.8113 24.1821 47.8197C26.1905 49.8281 29.4467 49.8281 31.4551 47.8197L36.0009 43.2741L40.5465 47.8197C42.5549 49.8281 45.8113 49.8281 47.8197 47.8197C49.8281 45.8113 49.8281 42.555 47.8197 40.5467L43.2739 36.0009L47.8197 31.4553C49.8281 29.4468 49.8281 26.1905 47.8197 24.1821C45.8113 22.1737 42.5549 22.1737 40.5465 24.1821L36.0009 28.7279L31.4551 24.1821C29.4467 22.1737 26.1905 22.1737 24.1821 24.1821C22.1737 26.1905 22.1737 29.4468 24.1821 31.4553L28.7277 36.0009L24.1821 40.5465Z" fill="white"/>
</svg>
