<svg xmlns="http://www.w3.org/2000/svg" width="48" height="48" viewBox="0 0 48 48" fill="none">
  <path d="M40 32.5H8C6.54131 32.5 5.14236 33.0795 4.11091 34.1109C3.07946 35.1424 2.5 36.5413 2.5 38C2.5 39.4587 3.07946 40.8576 4.11091 41.8891C5.14236 42.9205 6.54131 43.5 8 43.5H40C41.4587 43.5 42.8576 42.9205 43.8891 41.8891C44.9205 40.8576 45.5 39.4587 45.5 38C45.5 36.5413 44.9205 35.1424 43.8891 34.1109C42.8576 33.0795 41.4587 32.5 40 32.5Z" fill="#2945E8"/>
  <path d="M39 4.50084C37.7275 4.48891 36.4979 4.96072 35.56 5.82084C35.3581 6.0345 35.1147 6.20471 34.8448 6.32103C34.5748 6.43736 34.284 6.49736 33.99 6.49736C33.696 6.49736 33.4052 6.43736 33.1352 6.32103C32.8653 6.20471 32.6219 6.0345 32.42 5.82084C31.476 4.97054 30.2505 4.5 28.98 4.5C27.7095 4.5 26.484 4.97054 25.54 5.82084C25.3414 6.03661 25.1003 6.20884 24.8318 6.32665C24.5633 6.44446 24.2732 6.50529 23.98 6.50529C23.6868 6.50529 23.3967 6.44446 23.1282 6.32665C22.8597 6.20884 22.6186 6.03661 22.42 5.82084C21.4792 4.97196 20.2571 4.50209 18.99 4.50209C17.7229 4.50209 16.5008 4.97196 15.56 5.82084C15.3614 6.03661 15.1203 6.20884 14.8518 6.32665C14.5833 6.44446 14.2932 6.50529 14 6.50529C13.7068 6.50529 13.4167 6.44446 13.1482 6.32665C12.8797 6.20884 12.6386 6.03661 12.44 5.82084C11.5021 4.96072 10.2725 4.48891 9 4.50084C8.60218 4.50084 8.22064 4.65887 7.93934 4.94018C7.65804 5.22148 7.5 5.60301 7.5 6.00084V43.5008H40.5V6.00084C40.5 5.60301 40.342 5.22148 40.0607 4.94018C39.7794 4.65887 39.3978 4.50084 39 4.50084Z" fill="#4294FF"/>
  <path d="M24 18.5H18C17.6022 18.5 17.2206 18.342 16.9393 18.0607C16.658 17.7794 16.5 17.3978 16.5 17C16.5 16.6022 16.658 16.2206 16.9393 15.9393C17.2206 15.658 17.6022 15.5 18 15.5H24C24.3978 15.5 24.7794 15.658 25.0607 15.9393C25.342 16.2206 25.5 16.6022 25.5 17C25.5 17.3978 25.342 17.7794 25.0607 18.0607C24.7794 18.342 24.3978 18.5 24 18.5Z" fill="#E6ECFF"/>
  <path d="M32 26.5H18C17.6022 26.5 17.2206 26.342 16.9393 26.0607C16.658 25.7794 16.5 25.3978 16.5 25C16.5 24.6022 16.658 24.2206 16.9393 23.9393C17.2206 23.658 17.6022 23.5 18 23.5H32C32.3978 23.5 32.7794 23.658 33.0607 23.9393C33.342 24.2206 33.5 24.6022 33.5 25C33.5 25.3978 33.342 25.7794 33.0607 26.0607C32.7794 26.342 32.3978 26.5 32 26.5Z" fill="#E6ECFF"/>
  <path d="M32 34.5H18C17.6022 34.5 17.2206 34.342 16.9393 34.0607C16.658 33.7794 16.5 33.3978 16.5 33C16.5 32.6022 16.658 32.2206 16.9393 31.9393C17.2206 31.658 17.6022 31.5 18 31.5H32C32.3978 31.5 32.7794 31.658 33.0607 31.9393C33.342 32.2206 33.5 32.6022 33.5 33C33.5 33.3978 33.342 33.7794 33.0607 34.0607C32.7794 34.342 32.3978 34.5 32 34.5Z" fill="#E6ECFF"/>
</svg>